<svg width="21" height="21" viewBox="0 0 21 21" fill="none" xmlns="http://www.w3.org/2000/svg">
<path d="M10.7359 3.62457L10.5192 3.77358V4.03654V6.46346V6.72641L10.7359 6.87542L13.4801 8.76292L13.7188 8.92711L13.98 8.80164C13.9909 8.79641 14.0021 8.79191 14.0136 8.78818L14.014 8.78806L16.1833 8.08365H16.4856L16.5918 7.72599L17.361 5.1356L17.4352 4.88602L17.2732 4.68219C16.304 3.46255 15.0347 2.51537 13.5897 1.93332L13.3407 1.83303L13.1195 1.98515L10.7359 3.62457ZM7.38358 1.98531L7.16244 1.83303L6.91334 1.93326C5.46599 2.51569 4.1949 3.46436 3.22477 4.6862L3.06296 4.89L3.13704 5.13945L3.90627 7.72983L3.9875 8.00337L4.26432 8.07257L4.2721 8.07451L4.27818 8.07603L4.28417 8.07757L4.28981 8.0794L6.48404 8.7919L6.48444 8.79203C6.49595 8.79576 6.50719 8.80025 6.51809 8.80549L6.77944 8.93105L7.01823 8.76659L9.76438 6.87525L9.98077 6.72621V6.46346V4.03654V3.77376L9.76435 3.62473L7.38358 1.98531ZM5.85 15.3096H6.13921L6.28342 15.0589C6.28815 15.0507 6.29332 15.0427 6.2989 15.035L7.65253 13.1716C7.65273 13.1713 7.65293 13.1711 7.65315 13.1708C7.65633 13.1665 7.66148 13.1601 7.67642 13.1422L7.85663 12.926L7.7652 12.6597L6.7277 9.63856L6.63174 9.35911L6.34065 9.30838C6.33143 9.30678 6.3223 9.30469 6.31329 9.30213L4.12474 8.59083L4.12311 8.5903C4.12223 8.59002 4.12136 8.58972 4.1205 8.58941C4.11887 8.58882 4.11727 8.58818 4.11568 8.58748L3.84481 8.46838L3.61006 8.6485L1.49468 10.2716L1.28702 10.4309L1.29962 10.6923C1.37485 12.2528 1.85935 13.7661 2.70447 15.0801L2.8521 15.3096H3.125H5.85ZM12.5604 18.9062L12.8151 18.8384L12.903 18.59L13.8703 15.8593L13.964 15.5948L13.7871 15.377C13.7806 15.369 13.7747 15.362 13.7708 15.3574L13.7656 15.3513L13.7639 15.3494L12.4093 13.4849L12.4077 13.4828C12.4021 13.4752 12.397 13.4673 12.3922 13.4592L12.2475 13.2115H11.9606H8.53943H8.25255L8.10777 13.4592C8.10303 13.4673 8.09786 13.4752 8.09228 13.4828L8.09069 13.4849L6.73606 15.3494L6.73439 15.3513L6.72924 15.3574C6.72532 15.362 6.71942 15.369 6.7129 15.377L6.53597 15.5948L6.62966 15.8593L7.59697 18.59L7.68495 18.8384L7.93958 18.9062C9.45347 19.3094 11.0465 19.3094 12.5604 18.9062ZM14.2166 15.056L14.3606 15.3064L14.6495 15.3067L17.3735 15.3096L17.6468 15.3099L17.7946 15.0801C18.6397 13.7661 19.1242 12.2528 19.1994 10.6923L19.212 10.4309L19.0044 10.2716L16.889 8.6485L16.6542 8.46839L16.3834 8.58748C16.3809 8.58855 16.3785 8.58949 16.3759 8.5903L16.3743 8.59083L14.1858 9.30213C14.1767 9.30469 14.1676 9.30678 14.1584 9.30838L13.8673 9.35911L13.7713 9.63856L12.7338 12.6597L12.6424 12.9259L12.8226 13.1422C12.8377 13.1603 12.8428 13.1666 12.846 13.1709C12.8462 13.1711 12.8463 13.1714 12.8465 13.1716L14.2011 15.0321C14.2012 15.0322 14.2013 15.0323 14.2013 15.0324C14.2068 15.04 14.2119 15.0479 14.2166 15.056ZM4.97209 2.35104C6.53428 1.30722 8.3709 0.750054 10.2497 0.75C12.7685 0.752726 15.1834 1.75452 16.9644 3.53558C18.7455 5.31669 19.7473 7.73165 19.75 10.2505C19.7499 12.1293 19.1927 13.9658 18.149 15.5279C17.1051 17.0902 15.6214 18.3078 13.8855 19.0269C12.1496 19.7459 10.2395 19.934 8.39665 19.5675C6.55383 19.2009 4.86109 18.2961 3.53249 16.9675C2.20389 15.6389 1.2991 13.9462 0.932544 12.1034C0.565985 10.2605 0.754116 8.3504 1.47315 6.61451C2.19218 4.87861 3.40982 3.39491 4.97209 2.35104Z" fill="#0E7E3F" stroke="white"/>
</svg>
