<svg width="24" height="24" viewBox="0 0 24 24" fill="none" xmlns="http://www.w3.org/2000/svg">
<path d="M12.25 2.25C10.2722 2.25 8.33879 2.83649 6.6943 3.9353C5.04981 5.03412 3.76809 6.5959 3.01121 8.42316C2.25433 10.2504 2.0563 12.2611 2.44215 14.2009C2.828 16.1407 3.78041 17.9225 5.17894 19.3211C6.57746 20.7196 8.35929 21.672 10.2991 22.0578C12.2389 22.4437 14.2496 22.2457 16.0768 21.4888C17.9041 20.7319 19.4659 19.4502 20.5647 17.8057C21.6635 16.1612 22.25 14.2278 22.25 12.25C22.2472 9.59869 21.1927 7.05678 19.318 5.18202C17.4432 3.30727 14.9013 2.2528 12.25 2.25ZM13.0192 6.03654L15.4029 4.39711C16.7676 4.94683 17.9664 5.84138 18.8817 6.99327L18.1125 9.58365C18.0933 9.58365 18.0731 9.59327 18.0538 9.6L15.8596 10.3125C15.8267 10.3231 15.7946 10.336 15.7635 10.351L13.0192 8.46346V6.03654ZM9.1 4.39711L11.4808 6.03654V8.46346L8.73462 10.3548C8.70347 10.3398 8.67134 10.327 8.63846 10.3163L6.44423 9.60385C6.425 9.59711 6.40481 9.59231 6.38558 9.5875L5.61635 6.99711C6.53258 5.84315 7.73306 4.94719 9.1 4.39711ZM7.85 16.8096H5.125C4.32734 15.5694 3.87004 14.1411 3.79904 12.6683L5.91443 11.0452C5.93264 11.0532 5.95125 11.0603 5.9702 11.0663L8.16539 11.7798C8.19475 11.7886 8.22461 11.7957 8.25481 11.801L9.29231 14.8221C9.27789 14.8394 9.26346 14.8567 9.25 14.875L7.89423 16.7413C7.8783 16.7633 7.86353 16.7861 7.85 16.8096ZM14.4317 20.4231C13.0022 20.8038 11.4978 20.8038 10.0683 20.4231L9.10096 17.6923C9.11346 17.6769 9.12693 17.6625 9.13846 17.6461L10.4952 15.7788C10.5111 15.7572 10.5259 15.7347 10.5394 15.7115H13.9606C13.9741 15.7347 13.9889 15.7572 14.0048 15.7788L15.3615 17.6461C15.3731 17.6625 15.3865 17.6769 15.399 17.6923L14.4317 20.4231ZM16.65 16.8067C16.6365 16.7832 16.6217 16.7604 16.6058 16.7385L15.249 14.875C15.2356 14.8567 15.2212 14.8394 15.2067 14.8221L16.2442 11.801C16.2744 11.7957 16.3043 11.7886 16.3337 11.7798L18.5288 11.0663C18.5478 11.0603 18.5664 11.0532 18.5846 11.0452L20.7 12.6683C20.629 14.1411 20.1717 15.5694 19.374 16.8096L16.65 16.8067Z" fill="black"/>
</svg>
