<svg width="24" height="24" viewBox="0 0 24 24" fill="none" xmlns="http://www.w3.org/2000/svg">
<path d="M7.873 4.509V4.009V2.7C7.873 2.64696 7.85193 2.59609 7.81442 2.55858C7.77691 2.52107 7.72604 2.5 7.673 2.5C7.62001 2.5 7.56918 2.52103 7.53168 2.55848C7.49424 2.59587 7.47314 2.64657 7.473 2.69948C7.473 2.69956 7.473 2.69964 7.473 2.69971L7.473 4.009V4.509H6.973H4C3.6023 4.509 3.22089 4.66693 2.9396 4.94807C2.65838 5.22916 2.50026 5.6104 2.5 6.008L7.873 4.509ZM7.873 4.509H8.373H15.89H16.39V4.009V2.709C16.39 2.65596 16.4111 2.60509 16.4486 2.56758C16.4861 2.53007 16.537 2.509 16.59 2.509C16.643 2.509 16.6939 2.53007 16.7314 2.56758C16.7689 2.60509 16.79 2.65596 16.79 2.709V4.009V4.509H17.29H20C20.3977 4.509 20.7791 4.66693 21.0604 4.94807C21.3417 5.22922 21.4998 5.61056 21.5 6.00825M7.873 4.509L21.5 6.00825M21.5 6.00825V20.0007C21.4998 20.3984 21.3417 20.7798 21.0604 21.0609C20.7791 21.3421 20.3977 21.5 20 21.5H4C3.6023 21.5 3.22089 21.3421 2.9396 21.0609C2.65838 20.7798 2.50026 20.3986 2.5 20.001C2.5 20.0009 2.5 20.0008 2.5 20.0007L2.5 6.00814C2.5 6.00818 2.5 6.00821 2.5 6.00825H21.5ZM3.40041 9.242L2.9 9.24159V9.742V20.001C2.9 20.1455 2.92845 20.2885 2.98373 20.4219C3.03901 20.5554 3.12004 20.6767 3.22218 20.7788C3.32433 20.881 3.44559 20.962 3.57905 21.0173C3.71251 21.0726 3.85555 21.101 4 21.101H20C20.1444 21.101 20.2875 21.0725 20.421 21.0173C20.5544 20.962 20.6757 20.881 20.7778 20.7788C20.88 20.6767 20.961 20.5554 21.0163 20.422C21.0715 20.2885 21.1 20.1455 21.1 20.001V9.756V9.25641L20.6004 9.256L3.40041 9.242ZM7.473 5.408V4.908H6.973H4C3.85555 4.908 3.71251 4.93645 3.57905 4.99173C3.44559 5.04701 3.32433 5.12804 3.22218 5.23018C3.12004 5.33233 3.03901 5.45359 2.98373 5.58705C2.92845 5.72051 2.9 5.86355 2.9 6.008V8.343V8.84259L3.39959 8.843L20.5996 8.857L21.1 8.85741V8.357V6.008C21.1 5.86354 21.0715 5.7205 21.0163 5.58705C20.961 5.4536 20.88 5.33233 20.7778 5.23018C20.6757 5.12804 20.5544 5.04701 20.4209 4.99173C20.2875 4.93645 20.1445 4.908 20 4.908H17.29H16.79V5.408V6.337C16.79 6.39004 16.7689 6.44091 16.7314 6.47842C16.6939 6.51593 16.643 6.537 16.59 6.537C16.537 6.537 16.4861 6.51593 16.4486 6.47842C16.4111 6.44091 16.39 6.39004 16.39 6.337V5.408V4.908H15.89H8.373H7.873V5.408V6.328C7.873 6.38104 7.85193 6.43191 7.81442 6.46942C7.77691 6.50693 7.72604 6.528 7.673 6.528C7.61996 6.528 7.56909 6.50693 7.53158 6.46942C7.49407 6.43191 7.473 6.38104 7.473 6.328V5.408ZM8.167 17.119V17.785H7.5V17.119H8.167ZM12.333 17.119V17.785H11.667V17.119H12.333ZM16.5 17.119V17.785H15.833V17.119H16.5ZM8.167 13.142V13.808H7.5V13.142H8.167ZM12.333 13.142V13.808H11.667V13.142H12.333ZM16.5 13.142V13.808H15.833V13.142H16.5Z" fill="#0E7E3F" stroke="white"/>
</svg>
