<svg width="28" height="28" viewBox="0 0 28 28" fill="none" xmlns="http://www.w3.org/2000/svg">
<path fill-rule="evenodd" clip-rule="evenodd" d="M14.0001 0.666672C6.63608 0.666672 0.666748 6.636 0.666748 14C0.666748 21.364 6.63608 27.3333 14.0001 27.3333C21.3641 27.3333 27.3334 21.364 27.3334 14C27.3334 6.636 21.3641 0.666672 14.0001 0.666672ZM10.0001 14C10.0002 13.1876 10.2476 12.3944 10.7096 11.7261C11.1716 11.0577 11.8261 10.5459 12.5861 10.2587C13.3461 9.97149 14.1755 9.92252 14.964 10.1183C15.7525 10.3141 16.4627 10.7453 17.0001 11.3547C17.2342 11.6199 17.564 11.7812 17.9171 11.8033C18.2702 11.8253 18.6175 11.7061 18.8827 11.472C19.148 11.2379 19.3093 10.908 19.3313 10.555C19.3533 10.2019 19.2342 9.85456 19.0001 9.58934C18.1043 8.57384 16.9206 7.85518 15.6064 7.52899C14.2922 7.2028 12.9098 7.28454 11.6432 7.76334C10.3765 8.24214 9.28576 9.09529 8.51594 10.2093C7.74612 11.3233 7.33378 12.6452 7.33378 13.9993C7.33378 15.3534 7.74612 16.6754 8.51594 17.7894C9.28576 18.9034 10.3765 19.7565 11.6432 20.2353C12.9098 20.7141 14.2922 20.7959 15.6064 20.4697C16.9206 20.1435 18.1043 19.4248 19.0001 18.4093C19.1159 18.278 19.2047 18.1252 19.2615 17.9595C19.3182 17.7939 19.3418 17.6187 19.3309 17.4439C19.3199 17.2691 19.2746 17.0982 19.1976 16.941C19.1206 16.7837 19.0134 16.6432 18.8821 16.5273C18.7508 16.4115 18.5979 16.3227 18.4323 16.2659C18.2666 16.2092 18.0914 16.1856 17.9166 16.1966C17.7419 16.2075 17.571 16.2528 17.4137 16.3298C17.2565 16.4068 17.1159 16.514 17.0001 16.6453C16.4627 17.2547 15.7525 17.6859 14.964 17.8817C14.1755 18.0775 13.3461 18.0285 12.5861 17.7413C11.8261 17.4541 11.1716 16.9423 10.7096 16.274C10.2476 15.6056 10.0002 14.8125 10.0001 14Z" fill="#858585"/>
</svg>
