<svg width="24" height="25" viewBox="0 0 24 25" fill="none" xmlns="http://www.w3.org/2000/svg">
<path fill-rule="evenodd" clip-rule="evenodd" d="M12 14.622L17.303 19.925C17.5844 20.2064 17.966 20.3645 18.364 20.3645C18.762 20.3645 19.1436 20.2064 19.425 19.925C19.7064 19.6436 19.8645 19.2619 19.8645 18.864C19.8645 18.466 19.7064 18.0844 19.425 17.803L14.12 12.5L19.424 7.19699C19.5633 7.05766 19.6737 6.89226 19.7491 6.71024C19.8244 6.52821 19.8632 6.33313 19.8631 6.13613C19.8631 5.93914 19.8242 5.74407 19.7488 5.56209C19.6734 5.3801 19.5628 5.21475 19.4235 5.07549C19.2842 4.93622 19.1188 4.82576 18.9367 4.75042C18.7547 4.67507 18.5596 4.63631 18.3626 4.63636C18.1656 4.63641 17.9706 4.67526 17.7886 4.75069C17.6066 4.82612 17.4413 4.93666 17.302 5.07599L12 10.379L6.697 5.07599C6.5587 4.93266 6.39323 4.81831 6.21027 4.73961C6.0273 4.66091 5.83049 4.61944 5.63132 4.61762C5.43215 4.61579 5.23462 4.65365 5.05024 4.72899C4.86586 4.80432 4.69833 4.91562 4.55742 5.05639C4.41652 5.19717 4.30506 5.36459 4.22955 5.5489C4.15404 5.73321 4.116 5.93071 4.11763 6.12988C4.11927 6.32905 4.16056 6.52589 4.23908 6.70894C4.31761 6.89198 4.4318 7.05755 4.575 7.19599L9.88 12.5L4.576 17.804C4.4328 17.9424 4.31861 18.108 4.24008 18.291C4.16156 18.4741 4.12027 18.6709 4.11863 18.8701C4.117 19.0693 4.15504 19.2668 4.23055 19.4511C4.30606 19.6354 4.41752 19.8028 4.55842 19.9436C4.69933 20.0844 4.86686 20.1957 5.05124 20.271C5.23562 20.3463 5.43315 20.3842 5.63232 20.3824C5.83149 20.3805 6.0283 20.3391 6.21127 20.2604C6.39423 20.1817 6.5597 20.0673 6.698 19.924L12 14.622Z" fill="white"/>
</svg>
