<svg width="40" height="40" viewBox="0 0 40 40" fill="none" xmlns="http://www.w3.org/2000/svg">
<path d="M19.0624 17.4969C18.9405 18.0656 18.6562 19.6406 18.5937 20.2125C18.5124 20.9375 18.5249 21.9125 18.6062 22.6969C18.6687 23.3094 19.0812 25.9437 19.2562 27.0531C19.303 27.35 19.1405 27.6375 18.8624 27.7469C17.9655 28.1094 15.8343 28.8906 12.8843 29.4562C10.1937 29.9719 8.49366 30.1812 7.68116 30.2625C7.35616 30.2937 7.05929 30.0812 6.99054 29.7594C6.60304 27.975 5.30616 22.2125 3.76866 17.9875C3.57179 17.4469 1.40304 10.9969 1.40304 10.9969C1.05304 10.0344 1.29679 9.09999 2.21241 8.72499C3.15304 8.33749 3.84679 8.77812 4.19991 9.61249L5.64054 13.4844C5.70929 13.6469 5.85929 13.9375 6.02804 13.8906C6.20929 13.8375 6.25616 13.6781 6.20929 13.5C5.89991 12.2844 4.63116 8.29062 4.48116 7.52499C4.27491 6.46562 4.59366 5.57499 5.56554 5.32187C6.53741 5.06874 7.37804 5.76249 7.59366 6.55312C7.80929 7.34374 9.34991 12.7 9.34991 12.7C9.48116 13.0625 9.84054 12.8094 9.80616 12.6187L8.49991 5.46874C8.24366 3.97187 9.03116 3.06562 10.0187 3.02499C10.8124 2.99374 11.6749 3.38124 11.9312 4.68124L13.1874 12.1469C13.2749 12.475 13.5718 12.45 13.5437 12.0625L13.1187 5.61874C13.0312 4.09374 13.6687 3.60937 14.4718 3.55937C15.6749 3.48437 16.1687 4.18124 16.2718 5.52187C16.3249 6.21874 16.8437 11.5031 16.8437 11.5031C16.8499 11.5875 16.8593 11.7281 16.8593 11.7281C17.2062 11.3062 17.6593 10.8812 18.378 10.8719C19.0312 10.8625 19.5593 11.0062 19.8749 12.2187C20.1468 13.2781 19.3843 16.0031 19.0624 17.4969Z" fill="#858585"/>
<path d="M14.9282 17.4344C14.797 15.4875 15.0001 11.8812 16.7907 11.0281L16.8532 11.725C15.7626 13.2281 15.4438 17.6344 15.422 18.2437C15.4001 18.8562 15.0063 18.5875 14.9282 17.4344ZM9.0157 30.0937C9.0157 30.0937 8.53133 30.0344 8.28133 29.3625C8.03133 28.6906 7.42508 25.6437 7.40008 25.3844C7.34695 24.8406 7.48758 24.8375 7.5782 24.8406C7.69695 24.8469 7.83758 25.0281 7.9782 25.6062C8.2282 26.6312 9.0157 30.0937 9.0157 30.0937ZM11.4407 29.7125C11.4407 29.7125 10.9563 29.6531 10.7063 28.9812C10.4563 28.3094 9.8657 25.3344 9.83758 25.0781C9.7782 24.5219 9.88133 24.4969 9.94695 24.4687C10.072 24.4156 10.2407 24.5531 10.4032 25.225C10.6501 26.25 11.4407 29.7125 11.4407 29.7125ZM13.6376 29.2719C13.6376 29.2719 13.1532 29.2125 12.9032 28.5406C12.7095 28.0219 12.2063 25.8719 12.0376 24.8094C11.972 24.3937 12.0282 24.0656 12.2095 24.0625C12.2907 24.0594 12.4188 23.9687 12.6032 24.7844C12.8313 25.8125 13.6376 29.2719 13.6376 29.2719ZM17.622 28.2062C17.622 28.2062 18.0313 27.9437 17.9688 27.2312C17.9188 26.6812 17.4595 24.5156 17.1626 23.4812C17.1126 23.3094 16.9563 22.9281 16.7501 22.9812C16.5438 23.0344 16.5532 23.2531 16.6501 23.7062C16.8657 24.7344 17.622 28.2062 17.622 28.2062ZM15.3313 28.8562C15.3313 28.8562 15.7407 28.5937 15.6782 27.8812C15.6313 27.35 15.2032 25.3281 14.9063 24.2562C14.8032 23.8844 14.747 23.5625 14.4845 23.5594C14.2595 23.5562 14.2626 23.9156 14.3595 24.3562C14.4501 24.7969 15.3313 28.8562 15.3313 28.8562Z" fill="black"/>
<path d="M20.8781 25.0094C20.9968 25.5781 21.2656 27.1563 21.3281 27.7281C21.4031 28.4531 21.3812 29.4281 21.2937 30.2125C21.2281 30.7875 20.8437 33.1438 20.6468 34.3438C20.6115 34.5505 20.6484 34.7631 20.7514 34.9458C20.8544 35.1285 21.0173 35.2702 21.2125 35.3469C22.2062 35.7438 24.2312 36.4719 26.9656 37.0156C29.55 37.5313 31.3625 37.6125 32.3093 37.6063C32.5225 37.6048 32.7286 37.5297 32.8927 37.3935C33.0568 37.2574 33.1686 37.0687 33.2093 36.8594C33.5718 34.9656 34.6562 29.6875 36.175 25.6219C36.375 25.0844 38.5968 18.65 38.5968 18.65C38.9531 17.6906 38.7187 16.7531 37.8062 16.3719C36.8687 15.9781 36.1718 16.4125 35.8093 17.2438L34.1468 21.2938C34.0781 21.4563 33.9531 21.5063 33.8625 21.4719C33.7718 21.4375 33.7656 21.3438 33.8156 21.1625C34.1343 19.95 35.3812 15.6688 35.5375 14.9063C35.7218 14.0094 35.3875 13.175 34.4187 12.9125C33.45 12.6531 32.6437 13.1938 32.4218 13.9844C32.2 14.775 30.6312 20.5094 30.6312 20.5094C30.5812 20.7031 30.2062 20.6406 30.2843 20.3125L31.8218 13.0125C32.0562 11.5656 31.4906 10.8094 30.4718 10.6156C29.4562 10.4219 28.625 10.8844 28.3718 12.3313C28.3718 12.3313 27.05 19.6875 27.0031 19.8875C26.9437 20.1281 26.5781 20.0938 26.6375 19.7844L27.2187 12.9656C27.2468 11.5781 26.5156 11.1 25.6187 11.0875C24.3656 11.0719 23.8656 11.9656 23.7593 13.1906C23.7 13.8875 23.1406 19.2563 23.1406 19.2563C23.1406 19.2563 22.5187 18.4563 21.6937 18.4781C21.3 18.4875 20.3406 18.6875 20.275 19.9938C20.2218 20.9188 20.5687 23.5156 20.8781 25.0094Z" fill="#858585"/>
<path d="M22.1843 24.8562C21.9062 22.8906 22.2624 18.5906 22.2624 18.5906C22.703 18.6781 23.1343 19.2562 23.1343 19.2562L22.6874 25.7C22.6874 25.7 22.3655 26.1375 22.1843 24.8562ZM22.453 35.7875C22.453 35.7875 22.0343 35.5406 22.0687 34.825C22.0968 34.25 22.5343 31.9156 22.778 30.925C22.9187 30.35 23.0905 30.3719 23.1655 30.3812C23.2968 30.3937 23.3874 30.5937 23.2749 31.2531C23.0968 32.2969 22.453 35.7875 22.453 35.7875ZM24.8562 36.5406C24.8562 36.5406 24.4374 36.2937 24.4718 35.5781C24.4999 35.0031 24.928 32.675 25.1812 31.6844C25.328 31.1125 25.4999 31.125 25.5749 31.1344C25.703 31.1531 25.7843 31.2969 25.678 32.0062C25.5155 33.05 24.8562 36.5406 24.8562 36.5406ZM27.0155 37.025C27.0155 37.025 26.5968 36.7781 26.6312 36.0625C26.6593 35.4875 27.2374 32.6219 27.3405 32.1656C27.4437 31.7094 27.5437 31.5375 27.7062 31.5625C27.8687 31.5875 27.9687 31.7156 27.8374 32.4906C27.6593 33.5344 27.0155 37.025 27.0155 37.025ZM31.0905 37.5469C31.0905 37.5469 31.5718 37.4656 31.7937 36.7875C31.9749 36.2344 32.4405 33.875 32.5499 32.875C32.5749 32.6406 32.5562 32.225 32.4062 32.1875C32.2812 32.1562 32.128 32.1969 31.9687 33.025C31.7749 34.0625 31.0905 37.5469 31.0905 37.5469ZM28.7749 37.3125C28.7749 37.3125 29.2562 37.2312 29.478 36.5531C29.6999 35.875 30.203 32.6719 30.2218 32.4125C30.2468 32.0312 30.1343 31.9281 29.9905 31.9625C29.8437 31.9937 29.7405 32.3687 29.6562 32.7937C29.3602 34.2996 29.0664 35.8058 28.7749 37.3125Z" fill="black"/>
</svg>
