<svg width="24" height="24" viewBox="0 0 24 24" fill="none" xmlns="http://www.w3.org/2000/svg">
<path d="M4.5 10.6689V10.6688V4.534L12.5 1.534L20.5 4.534V10.6688C20.5 13.2534 19.7332 15.5991 18.1921 17.7199C16.6801 19.8007 14.7852 21.1298 12.5001 21.7336C10.2155 21.1292 8.32055 19.7997 6.80781 17.7187C5.26611 15.598 4.49932 13.2527 4.5 10.6689ZM12.3488 20.4953L12.5 20.5433L12.6512 20.4953C14.6098 19.8739 16.2204 18.6307 17.4809 16.7956C18.7427 14.9585 19.375 12.9117 19.375 10.6688V5.64844V5.30194L19.0506 5.18027L12.6756 2.78965L12.5 2.72381L12.3244 2.78965L5.94944 5.18027L5.625 5.30194V5.64844V10.6688C5.625 12.9117 6.25726 14.9585 7.51911 16.7956C8.77956 18.6307 10.3902 19.8739 12.3488 20.4953Z" fill="#0E7E3F" stroke="white"/>
</svg>
