<svg width="33" height="33" viewBox="0 0 33 33" fill="none" xmlns="http://www.w3.org/2000/svg">
<circle cx="16.5" cy="16.75" r="15.25" fill="#D9D9D9" stroke="black" stroke-width="1.5"/>
<path d="M16.001 13.75C15.2054 13.75 14.4423 14.0661 13.8797 14.6287C13.3171 15.1913 13.001 15.9544 13.001 16.75C13.001 17.5456 13.3171 18.3087 13.8797 18.8713C14.4423 19.4339 15.2054 19.75 16.001 19.75C16.7966 19.75 17.5597 19.4339 18.1223 18.8713C18.6849 18.3087 19.001 17.5456 19.001 16.75C19.001 15.9544 18.6849 15.1913 18.1223 14.6287C17.5597 14.0661 16.7966 13.75 16.001 13.75ZM16.001 11.75C17.3271 11.75 18.5989 12.2768 19.5365 13.2145C20.4742 14.1521 21.001 15.4239 21.001 16.75C21.001 18.0761 20.4742 19.3479 19.5365 20.2855C18.5989 21.2232 17.3271 21.75 16.001 21.75C14.6749 21.75 13.4031 21.2232 12.4655 20.2855C11.5278 19.3479 11.001 18.0761 11.001 16.75C11.001 15.4239 11.5278 14.1521 12.4655 13.2145C13.4031 12.2768 14.6749 11.75 16.001 11.75ZM22.501 11.5C22.501 11.8315 22.3693 12.1495 22.1349 12.3839C21.9005 12.6183 21.5825 12.75 21.251 12.75C20.9195 12.75 20.6015 12.6183 20.3671 12.3839C20.1327 12.1495 20.001 11.8315 20.001 11.5C20.001 11.1685 20.1327 10.8505 20.3671 10.6161C20.6015 10.3817 20.9195 10.25 21.251 10.25C21.5825 10.25 21.9005 10.3817 22.1349 10.6161C22.3693 10.8505 22.501 11.1685 22.501 11.5ZM16.001 8.75C13.527 8.75 13.123 8.757 11.972 8.808C11.188 8.845 10.662 8.95 10.174 9.14C9.76562 9.28994 9.39641 9.53026 9.094 9.843C8.78101 10.1454 8.54035 10.5146 8.39 10.923C8.2 11.413 8.095 11.938 8.059 12.721C8.007 13.825 8 14.211 8 16.75C8 19.225 8.007 19.628 8.058 20.779C8.095 21.562 8.2 22.089 8.389 22.576C8.559 23.011 8.759 23.324 9.091 23.656C9.428 23.992 9.741 24.193 10.171 24.359C10.665 24.55 11.191 24.656 11.971 24.692C13.075 24.744 13.461 24.75 16 24.75C18.475 24.75 18.878 24.743 20.029 24.692C20.811 24.655 21.337 24.55 21.826 24.361C22.234 24.2103 22.6031 23.9701 22.906 23.658C23.243 23.322 23.444 23.009 23.61 22.578C23.8 22.086 23.906 21.56 23.942 20.778C23.994 19.675 24 19.288 24 16.75C24 14.276 23.993 13.872 23.942 12.721C23.905 11.939 23.799 11.411 23.61 10.923C23.4593 10.515 23.219 10.146 22.907 9.843C22.6047 9.52985 22.2355 9.28917 21.827 9.139C21.337 8.949 20.811 8.844 20.029 8.808C18.926 8.756 18.54 8.75 16 8.75M16 6.75C18.717 6.75 19.056 6.76 20.123 6.81C21.187 6.86 21.913 7.027 22.55 7.275C23.21 7.529 23.766 7.873 24.322 8.428C24.8305 8.9279 25.224 9.53259 25.475 10.2C25.722 10.837 25.89 11.563 25.94 12.628C25.987 13.694 26 14.033 26 16.75C26 19.467 25.99 19.806 25.94 20.872C25.89 21.937 25.722 22.662 25.475 23.3C25.2246 23.9678 24.8311 24.5726 24.322 25.072C23.822 25.5803 23.2173 25.9738 22.55 26.225C21.913 26.472 21.187 26.64 20.123 26.69C19.056 26.737 18.717 26.75 16 26.75C13.283 26.75 12.944 26.74 11.877 26.69C10.813 26.64 10.088 26.472 9.45 26.225C8.78233 25.9745 8.17753 25.5809 7.678 25.072C7.16943 24.5722 6.77596 23.9675 6.525 23.3C6.277 22.663 6.11 21.937 6.06 20.872C6.012 19.806 6 19.467 6 16.75C6 14.033 6.01 13.694 6.06 12.628C6.11 11.563 6.277 10.838 6.525 10.2C6.77524 9.53218 7.1688 8.92732 7.678 8.428C8.17767 7.91923 8.78243 7.52573 9.45 7.275C10.087 7.027 10.812 6.86 11.877 6.81C12.945 6.763 13.284 6.75 16.001 6.75" fill="black"/>
</svg>
