<svg width="33" height="33" viewBox="0 0 33 33" fill="none" xmlns="http://www.w3.org/2000/svg">
<circle cx="16.5" cy="16.75" r="15.25" fill="#D9D9D9" stroke="black" stroke-width="1.5"/>
<path d="M23.607 11.745C23.531 11.447 23.315 11.222 23.068 11.153C22.63 11.03 20.501 10.75 16.001 10.75C11.501 10.75 9.373 11.03 8.932 11.153C8.688 11.221 8.472 11.446 8.395 11.745C8.286 12.169 8.001 13.945 8.001 16.75C8.001 19.554 8.286 21.33 8.395 21.756C8.471 22.053 8.687 22.278 8.933 22.346C9.373 22.47 11.5 22.75 16 22.75C20.5 22.75 22.629 22.47 23.069 22.347C23.313 22.279 23.529 22.054 23.606 21.755C23.716 21.331 24 19.55 24 16.75C24 13.95 23.716 12.17 23.607 11.745ZM25.543 11.248C26 13.03 26 16.75 26 16.75C26 16.75 26 20.47 25.543 22.252C25.289 23.237 24.546 24.012 23.605 24.274C21.897 24.75 16 24.75 16 24.75C16 24.75 10.107 24.75 8.395 24.274C7.45 24.008 6.708 23.234 6.457 22.252C6 20.47 6 16.75 6 16.75C6 16.75 6 13.03 6.457 11.248C6.711 10.263 7.454 9.488 8.395 9.226C10.108 8.75 16.001 8.75 16.001 8.75C16.001 8.75 21.897 8.75 23.606 9.226C24.55 9.492 25.293 10.266 25.544 11.248M14.001 20.25V13.25L20.001 16.75L14.001 20.25Z" fill="black"/>
</svg>
