<?xml version="1.0" encoding="utf-8"?>
<!-- Generator: Adobe Illustrator 23.0.2, SVG Export Plug-In . SVG Version: 6.00 Build 0)  -->
<svg version="1.1" xmlns="http://www.w3.org/2000/svg" xmlns:xlink="http://www.w3.org/1999/xlink" x="0px" y="0px"
	 viewBox="0 0 595.28 536.17" style="enable-background:new 0 0 595.28 536.17;" xml:space="preserve">
<style type="text/css">
	.st0{display:none;fill:#FFFFFF;}
	.st1{fill:#FFFFFF;}
	.st2{display:none;fill:url(#shield-2_2_);}
	.st3{fill:#E0E0E0;}
	.st4{display:none;}
	.st5{display:inline;}
	.st6{fill:#FFFFFF;stroke:#000000;stroke-width:2;stroke-miterlimit:10;}
	.st7{fill:url(#shield-2_3_);}
	.st8{fill:#EB5B06;}
	.st9{fill:#B2A1A1;}
	.st10{fill:#706D6D;}
	.st11{fill:url(#SVGID_1_);}
	.st12{fill:url(#SVGID_2_);stroke:#000000;stroke-miterlimit:10;}
	.st13{fill:url(#SVGID_3_);}
	.st14{fill:url(#SVGID_4_);}
	.st15{fill:url(#flame_2_);stroke:#E56106;stroke-width:0.25;stroke-miterlimit:10;}
	.st16{fill:#079133;}
	.st17{display:inline;fill:none;}
</style>
<g id="logo-mono-2022">
	<rect id="background01" class="st0" width="595.28" height="536.17"/>
</g>
<g id="logo-color-2022">
	<g id="logo_1_">
		<path id="border_1_" class="st6" d="M295.04,501.59c0,0-191.04-103.68-163.73-351.65c0,0,130.83-12.24,163.91-116.66
			c0,0,31.49,103.28,161.65,114.66C456.87,147.94,495.66,384.8,295.04,501.59z"/>
		<radialGradient id="shield-2_2_" cx="294.4487" cy="362.4769" r="145.314" gradientUnits="userSpaceOnUse">
			<stop  offset="0.0947" style="stop-color:#006C2B"/>
			<stop  offset="0.6769" style="stop-color:#098D38"/>
			<stop  offset="0.6805" style="stop-color:#098D38"/>
		</radialGradient>
		<path id="shield-2_1_" style="fill:url(#shield-2_2_);" d="M295.29,494.47c0,0-138.77-77.27-158.35-263.99l315.02,1
			C451.96,231.48,446.88,405.4,295.29,494.47z"/>
		<path id="shield-1_1_" class="st1" d="M454.11,228.62H136.78c0,0-5.16-42.31-0.44-75.91c0,0,127.22-14.89,158.95-112.55
			c0,0,30.75,97.66,158.82,111.24C454.11,151.41,458.37,198.52,454.11,228.62z"/>
		<g id="flames-sparks_1_">
			<path class="st8" d="M327.37,177.21c33-47.04,33-47.04,33-47.04l7.84,5.29L327.37,177.21z"/>
			<polygon class="st8" points="330.29,199.27 399.02,147.86 413.06,152.78 			"/>
			<polygon class="st8" points="327.37,215.55 446.79,170.1 446.79,183.05 			"/>
			<polygon class="st8" points="268.09,215.55 145.24,167.91 145.24,182.68 			"/>
			<polygon class="st8" points="263.56,199.27 194.47,147.86 181.34,151.51 			"/>
			<polygon class="st8" points="267.58,177.21 232.75,130.17 224.55,134.55 			"/>
			<polygon class="st8" points="269.33,140.11 256.45,112.67 251.35,115.41 			"/>
			<polygon class="st8" points="321.18,152.78 335.4,118.14 340.87,122.15 			"/>
		</g>
		<g>
			<path class="st9" d="M323.42,208.44h-51.05c-1.44,0-2.61-1.17-2.61-2.61v-1.94c0-1.44,1.17-2.61,2.61-2.61h51.05
				c1.44,0,2.61,1.17,2.61,2.61v1.94C326.04,207.27,324.87,208.44,323.42,208.44z"/>
			<rect x="272.92" y="209.3" class="st10" width="50.44" height="5.71"/>
			<linearGradient id="SVGID_1_" gradientUnits="userSpaceOnUse" x1="298.1129" y1="237.5912" x2="298.1129" y2="215.497">
				<stop  offset="4.102398e-07" style="stop-color:#8D8A8A"/>
				<stop  offset="0.6407" style="stop-color:#B5B3B3"/>
				<stop  offset="1" style="stop-color:#C6C5C5"/>
			</linearGradient>
			<path class="st11" d="M273.04,215.5h50.14c0,0-1.47,20.89-24,22.05C299.18,237.54,278.94,239.66,273.04,215.5z"/>
		</g>
		<linearGradient id="SVGID_2_" gradientUnits="userSpaceOnUse" x1="287.105" y1="375.8286" x2="326.3404" y2="375.8286">
			<stop  offset="8.204796e-07" style="stop-color:#017727"/>
			<stop  offset="1" style="stop-color:#00CB70"/>
		</linearGradient>
		<path class="st12" d="M311.11,397.91c0,0,11.55-12.78,15.23-44.17c0,0-14.94,8.25-38.49,14.99l-0.75,5.83
			C287.11,374.56,301.08,393.62,311.11,397.91z"/>
		<g id="bastão_1_">
			<linearGradient id="SVGID_3_" gradientUnits="userSpaceOnUse" x1="274.5637" y1="238.6454" x2="322.0262" y2="238.6454">
				<stop  offset="0.1609" style="stop-color:#B2A1A1"/>
				<stop  offset="0.4046" style="stop-color:#CDC2C2"/>
				<stop  offset="0.8012" style="stop-color:#FFFFFF"/>
			</linearGradient>
			<path class="st13" d="M274.56,235.13h47.46c0,0-1.09,3.58-8.23,7.04l-31.3-0.23C282.49,241.93,277.89,240.34,274.56,235.13z"/>
			<linearGradient id="SVGID_4_" gradientUnits="userSpaceOnUse" x1="282.5486" y1="361.4041" x2="313.6963" y2="361.4041">
				<stop  offset="0.1609" style="stop-color:#B2A1A1"/>
				<stop  offset="0.4046" style="stop-color:#CDC2C2"/>
				<stop  offset="0.8012" style="stop-color:#FFFFFF"/>
			</linearGradient>
			<path class="st14" d="M292.62,479.68l-10.07-236.3c-0.07-1.64,1.26-3,2.91-2.97l25.45,0.55c1.62,0.04,2.89,1.41,2.78,3.03
				l-15.31,235.75c-0.1,1.5-1.34,2.66-2.84,2.66h-0.07C293.94,482.4,292.68,481.2,292.62,479.68z"/>
		</g>
		
			<radialGradient id="flame_2_" cx="297.549" cy="168.9594" r="41.7021" fx="297.4468" fy="189.382" gradientUnits="userSpaceOnUse">
			<stop  offset="0.0947" style="stop-color:#ED8707"/>
			<stop  offset="0.2945" style="stop-color:#F2A805"/>
			<stop  offset="0.6805" style="stop-color:#FCF100"/>
		</radialGradient>
		<path id="flame_1_" class="st15" d="M291.33,106.93c0,0,15.81,5.65,11.64,25.19c0,0-5.28,15.34,0.7,21.72c0,0,4.64,2.65,3.4-3.02
			c0,0,0.02-1.86-0.8-7.92c0,0-2.93-6.32,6.1-16.27c0,0-2.74,9.23,0.89,18.9l8.35,21.74c0,0,8.99,26.81-15.14,33.23
			c0,0-17.15,1.01-21.9-0.75c0,0-15.47-1.56-14.21-23.43l1.76-6.72c0,0,6.92-11.91-2.79-24.5c0,0,14.98,1.9,14.64,18.46
			c0,0-1.1,7.95,3.62,8.68c0,0,4.15-0.98,2.02-7.26c0,0-9.23-15.98,1.58-35.27C291.19,129.72,297.64,122.97,291.33,106.93z"/>
		<g>
			<g>
				<path class="st1" d="M245.61,374.55c-31.46,0-58.3-11.35-79.8-33.74c-0.35-0.35-36.25-36.11-74.35-36.11
					c-18.95,0-35.39,8.8-48.88,26.15l-2.42,3.11l0.64-3.88c0.09-0.52,8.67-49.84,49.13-58.52c-3.89-0.72-9.72-1.52-16.34-1.52
					c-13.27,0-24.35,3.08-32.91,9.15l-2.7,1.91l1.19-3.09c0.14-0.37,14.87-37.43,54.92-37.43c26.49,0,57.89,15.94,93.33,47.38
					l0.04,0.04l0.04,0.04c0.28,0.31,28.65,31.22,68.66,31.22c19.84,0,39.33-7.53,57.95-22.37l0.61-0.49l0.62,0.48
					c0.83,0.64,20.36,16.2,12.28,54.41l-0.09,0.42l-0.37,0.22C326.78,352.15,289.24,374.54,245.61,374.55z"/>
				<path d="M94.09,241.56c22.23,0,52.44,11.45,92.66,47.13c0,0,28.46,31.55,69.4,31.55c17.63,0,37.58-5.85,58.57-22.59
					c0,0,19.95,15.37,11.91,53.41c0,0-37.17,22.48-81.03,22.48c-26.13,0-54.64-7.98-79.08-33.44c0,0-36.09-36.42-75.07-36.42
					c-16.92,0-34.38,6.86-49.67,26.54c0,0,8.74-53.17,53.41-58.55c0,0-9.42-2.65-21.62-2.65c-10.52,0-23.11,1.97-33.49,9.33
					C40.1,278.35,54.26,241.56,94.09,241.56 M94.09,239.56c-21.3,0-35.36,10.35-43.4,19.04c-8.68,9.37-12.31,18.65-12.46,19.04
					l-2.38,6.18l5.4-3.83c8.39-5.95,19.27-8.96,32.33-8.96c4.26,0,8.18,0.34,11.46,0.76C70.59,276.25,58.6,286.54,50,301.99
					c-7.85,14.11-10.09,27.35-10.18,27.91l-1.28,7.77l4.83-6.22c13.28-17.1,29.46-25.76,48.09-25.76c37.71,0,73.3,35.47,73.65,35.83
					c21.67,22.57,48.76,34.03,80.5,34.03c43.91,0,81.69-22.54,82.07-22.77l0.74-0.45l0.18-0.85c4.27-20.19,0.68-34.1-3.08-42.22
					c-4.14-8.94-9.35-13.02-9.57-13.19l-1.24-0.96l-1.23,0.98c-18.43,14.7-37.72,22.15-57.33,22.15
					c-39.54,0-67.64-30.58-67.92-30.89l-0.07-0.08l-0.08-0.07C152.45,255.59,120.83,239.56,94.09,239.56L94.09,239.56z"/>
			</g>
			<g>
				<path class="st16" d="M94.09,243.56c25.71,0,56.41,15.66,91.26,46.56c0.86,0.93,7.9,8.44,19.67,16.03
					c11.39,7.34,29.5,16.1,51.14,16.1c20.06,0,39.73-7.39,58.48-21.97c3.92,3.89,16.37,19.04,10.22,49.52
					c-5.43,3.1-39.84,21.76-79.25,21.76c-30.61,0-56.73-11.04-77.66-32.84c-0.37-0.38-9.33-9.36-23.24-18.48
					c-12.91-8.46-32.62-18.54-53.25-18.54c-17.38,0-32.73,7-45.71,20.82c1.48-4.97,3.93-11.7,7.75-18.57
					c9.98-17.94,24.1-28.13,41.95-30.28l9.94-1.2l-9.64-2.71c-0.4-0.11-9.83-2.73-22.16-2.73c-11.01,0-20.61,2.05-28.64,6.09
					c1.89-3.28,4.74-7.54,8.68-11.8C64.53,249.54,78.15,243.56,94.09,243.56 M94.09,241.56c-39.83,0-53.99,36.79-53.99,36.79
					c10.38-7.36,22.97-9.33,33.49-9.33c12.19,0,21.62,2.65,21.62,2.65c-44.67,5.38-53.41,58.55-53.41,58.55
					c15.29-19.68,32.75-26.54,49.67-26.54c38.98,0,75.07,36.42,75.07,36.42c24.44,25.46,52.95,33.44,79.08,33.44
					c43.86,0,81.03-22.48,81.03-22.48c8.04-38.04-11.91-53.41-11.91-53.41c-20.99,16.74-40.94,22.59-58.57,22.59
					c-40.95,0-69.4-31.55-69.4-31.55C146.53,253.01,116.31,241.56,94.09,241.56L94.09,241.56z"/>
			</g>
			<g>
				<path class="st1" d="M349.2,457.24c-28.02,0-55.87-8.46-82.78-25.14l-0.77-0.47l0.39-0.81c0.14-0.28,13.66-28.45,19.75-54.15
					l0.56-2.37l1.27,2.08c0.21,0.35,21.53,34.65,61.52,34.65c17.18,0,35.46-6.28,54.34-18.67c0.48-0.29,45.28-26.94,89.49-26.94
					c31.05,0,54.45,12.81,69.55,38.06l1.8,3.01l-3.11-1.61c-0.17-0.09-16.89-8.6-33.78-8.6c-1.41,0-2.8,0.06-4.15,0.18
					c4.9,5.65,20.65,26.71,9.5,53.08l-1.53,3.61l-0.39-3.9c-0.12-1.17-3.28-28.56-42.06-28.56c-7.07,0-14.98,0.94-23.52,2.78
					l-0.11,0.02l-0.12,0c-0.44,0-11.74,0.32-70.97,25.33C393.95,448.89,376.43,457.24,349.2,457.24z"/>
				<path d="M492.97,366.42c25.82,0,51.62,9.03,68.69,37.58c0,0-16.89-8.71-34.24-8.71c-2.08,0-4.16,0.12-6.22,0.4
					c0,0,23.55,22.96,10.64,53.47c0,0-2.85-29.46-43.05-29.46c-6.79,0-14.64,0.84-23.73,2.8c0,0,0,0-0.01,0
					c-0.33,0-11.64,0.19-71.37,25.41c0,0-17.17,8.33-44.49,8.33c-22.04,0-50.68-5.42-82.26-24.99c0,0,13.63-28.24,19.82-54.35
					c0,0,21.33,35.13,62.37,35.13c15.51,0,33.83-5.01,54.89-18.83C404.03,393.19,448.52,366.42,492.97,366.42 M492.97,364.42
					c-44.49,0-89.53,26.79-89.98,27.06l-0.03,0.02l-0.03,0.02c-18.71,12.28-36.81,18.5-53.79,18.5c-20.54,0-35.91-9.25-45.19-17.01
					c-10.13-8.47-15.43-17.07-15.48-17.16l-2.53-4.16l-1.12,4.73c-6.07,25.59-19.54,53.66-19.68,53.94l-0.78,1.62l1.53,0.95
					c27.07,16.78,55.1,25.29,83.31,25.29c27.01,0,44.08-7.91,45.32-8.51c58.56-24.72,70.1-25.22,70.56-25.23l0.23,0l0.19-0.05
					c8.47-1.83,16.31-2.76,23.31-2.76c16.03,0,27.81,4.7,35.03,13.96c5.32,6.83,6.03,13.62,6.04,13.69l0.76,7.85l3.07-7.26
					c6.95-16.42,3.57-30.69-0.5-39.77c-2.57-5.74-5.68-10.13-7.86-12.83c0.69-0.03,1.39-0.05,2.09-0.05
					c16.67,0,33.16,8.41,33.33,8.49l6.23,3.22l-3.6-6.02C548.08,377.39,524.39,364.42,492.97,364.42L492.97,364.42z"/>
			</g>
			<g>
				<path class="st1" d="M349.2,455.24c-27.38,0-54.61-8.2-80.97-24.37c2.2-4.69,13.23-28.72,18.97-51.54
					c5.25,7.4,26.41,33.7,61.94,33.7c17.58,0,36.23-6.39,55.44-18.99c0.41-0.25,44.74-26.61,88.4-26.61
					c29.1,0,51.3,11.51,66.05,34.24c-5.7-2.51-18.43-7.37-31.6-7.37c-2.19,0-4.33,0.14-6.35,0.41l-2.03,0.28l1.47,1.43
					c0.22,0.22,21.33,21.29,11.61,49.26c-2.23-7.92-10.97-26.97-43.32-26.97c-7.19,0-15.21,0.94-23.86,2.81
					c-1.54,0.08-14.76,1.46-71.64,25.48C393.08,447.09,375.94,455.24,349.2,455.24z"/>
				<path class="st16" d="M492.97,368.42c27.53,0,48.81,10.43,63.35,31.02c-6.6-2.63-17.58-6.15-28.9-6.16
					c-2.24,0-4.42,0.14-6.48,0.42l-4.07,0.55l2.94,2.86c0.21,0.2,19.39,19.31,12.3,45.2c-1.02-2.68-2.62-5.9-5.14-9.12
					c-5.51-7.07-16.6-15.5-38.18-15.5c-7.23,0-15.29,0.94-23.97,2.81c-2.16,0.11-15.77,1.85-71.91,25.56l-0.05,0.02l-0.05,0.02
					c-0.17,0.08-17.14,8.13-43.62,8.13c-26.93,0-53.73-7.99-79.68-23.76c2.8-6.02,12.53-27.67,18.12-48.83
					c2.59,3.46,7.14,8.88,13.64,14.34c9.8,8.23,26.06,18.03,47.87,18.03c17.77,0,36.59-6.44,55.95-19.13
					C406.48,394.06,450.06,368.42,492.97,368.42 M492.97,366.42c-44.45,0-88.94,26.77-88.94,26.77
					c-21.06,13.82-39.38,18.83-54.89,18.83c-41.05,0-62.37-35.13-62.37-35.13c-6.19,26.11-19.82,54.35-19.82,54.35
					c31.58,19.57,60.22,24.99,82.26,24.99c27.32,0,44.49-8.33,44.49-8.33c59.73-25.22,71.05-25.41,71.37-25.41c0,0,0.01,0,0.01,0
					c9.09-1.96,16.94-2.8,23.73-2.8c40.21,0,43.05,29.46,43.05,29.46c12.91-30.51-10.64-53.47-10.64-53.47
					c2.06-0.28,4.14-0.4,6.22-0.4c17.35,0,34.24,8.71,34.24,8.71C544.59,375.45,518.79,366.42,492.97,366.42L492.97,366.42z"/>
			</g>
		</g>
		<g id="textos" class="st4">
			<path id="SVGID_x5F_5_x5F_" class="st17" d="M106.87,284.55c0,0,34.59,1.89,79.27,49.56c0,0,62.65,51,138.95-3.05"/>
			<text class="st5">			<textPath  xlink:href="#SVGID_x5F_5_x5F_" startOffset="7.8615%">
<tspan  style="font-family:'Montserrat-Bold'; font-size:23px;">E.E.E.P DEPUTADO</tspan>			</textPath>
</text>
			<path id="SVGID_x5F_6_x5F_" class="st17" d="M281.71,419.44c0,0,52.8,47.7,125.78,8.53c0,0,48.39-36.99,108.66-21.09"/>
			<text class="st5">			<textPath  xlink:href="#SVGID_x5F_6_x5F_" startOffset="5.259%">
<tspan  style="font-family:'Montserrat-Bold'; font-size:23px;">JOSÉ MARIA MELO</tspan>			</textPath>
</text>
		</g>
		<g>
			<g>
				<path d="M138.59,292.29l-1.27,2.71l-11.29-5.29l6.84-14.58l11.01,5.17l-1.27,2.71l-7.66-3.6l-1.48,3.17l6.77,3.17l-1.23,2.62
					l-6.77-3.18l-1.58,3.37L138.59,292.29z"/>
				<path d="M151.72,300.23l-1.56,2.55l-10.63-6.51l8.4-13.73l10.38,6.35l-1.56,2.55l-7.22-4.42l-1.82,2.98l6.38,3.9l-1.51,2.47
					l-6.38-3.9l-1.94,3.18L151.72,300.23z"/>
				<path d="M164.08,309.34l-1.78,2.4l-10-7.44l9.61-12.92l9.76,7.26l-1.78,2.4l-6.79-5.05l-2.09,2.8l6,4.46l-1.73,2.32l-6-4.46
					l-2.22,2.99L164.08,309.34z"/>
				<path d="M182.51,308.88c0.48,1.05,0.64,2.09,0.49,3.12s-0.62,2-1.41,2.9c-0.78,0.89-1.67,1.48-2.68,1.77
					c-1.01,0.29-2.06,0.26-3.16-0.08c-1.1-0.34-2.18-0.98-3.26-1.92l-2.44-2.14l-2.93,3.34l-2.8-2.46l10.61-12.11l5.24,4.59
					C181.26,306.84,182.03,307.83,182.51,308.88z M176.75,313.39c0.76,0.02,1.43-0.3,2.01-0.97c0.6-0.68,0.83-1.39,0.71-2.14
					c-0.12-0.75-0.6-1.49-1.44-2.23l-2.28-2l-3.68,4.2l2.28,2C175.19,312.99,175.99,313.36,176.75,313.39z"/>
				<path d="M191.25,318.04l5.95,4.25c1.42,1.02,2.48,2.19,3.19,3.51c0.7,1.32,1,2.69,0.91,4.11c-0.1,1.42-0.62,2.78-1.55,4.09
					s-2.06,2.24-3.37,2.79c-1.31,0.55-2.7,0.71-4.18,0.47c-1.48-0.24-2.93-0.87-4.35-1.88l-5.95-4.25L191.25,318.04z M189.46,332.79
					c1.31,0.94,2.62,1.32,3.92,1.15c1.3-0.17,2.4-0.88,3.29-2.13c0.89-1.25,1.21-2.51,0.95-3.8s-1.04-2.4-2.35-3.33l-2.77-1.98
					l-5.81,8.12L189.46,332.79z"/>
				<path d="M211.94,345.17l-1.26,2.71l-11.3-5.26l6.79-14.6l11.03,5.13l-1.26,2.71l-7.67-3.57l-1.47,3.17l6.78,3.15l-1.22,2.63
					l-6.78-3.15l-1.57,3.38L211.94,345.17z"/>
				<path d="M229.49,337.71c0.87,0.75,1.46,1.63,1.76,2.63c0.3,1,0.28,2.07-0.06,3.22c-0.33,1.13-0.9,2.04-1.69,2.73
					c-0.79,0.69-1.76,1.11-2.9,1.26c-1.14,0.15-2.39,0.03-3.76-0.37l-3.11-0.92l-1.25,4.26l-3.57-1.05l4.54-15.45l6.69,1.96
					C227.5,336.38,228.62,336.96,229.49,337.71z M226.15,344.22c0.7-0.3,1.17-0.88,1.42-1.73c0.26-0.87,0.17-1.62-0.25-2.24
					s-1.17-1.1-2.25-1.42l-2.91-0.86l-1.58,5.36l2.91,0.86C224.57,344.51,225.46,344.52,226.15,344.22z"/>
				<path d="M234.47,352.84c-1.12-1.42-1.54-3.3-1.26-5.64l1.08-8.95l3.7,0.45l-1.06,8.81c-0.34,2.86,0.67,4.44,3.05,4.72
					c1.16,0.14,2.08-0.1,2.77-0.72c0.69-0.62,1.13-1.67,1.31-3.14l1.06-8.81l3.65,0.44l-1.08,8.95c-0.28,2.34-1.14,4.07-2.56,5.18
					c-1.42,1.11-3.28,1.53-5.56,1.25C237.29,355.11,235.59,354.26,234.47,352.84z"/>
				<path d="M254.7,342.83l-5.15,0.2l-0.12-3.03l14.02-0.56l0.12,3.03l-5.15,0.2l0.52,13.05l-3.72,0.15L254.7,342.83z"/>
				<path d="M276.59,349.81l-7.34,1.41l-0.75,3.66l-3.75,0.72l4-17.17l3.61-0.7l10.11,14.45l-3.84,0.74L276.59,349.81z
					 M274.9,347.25l-3.67-5.57l-1.34,6.54L274.9,347.25z"/>
				<path d="M280.08,336.04l6.85-2.58c1.64-0.62,3.2-0.85,4.69-0.7c1.49,0.15,2.8,0.66,3.92,1.54c1.12,0.87,1.97,2.06,2.53,3.57
					c0.57,1.51,0.72,2.96,0.45,4.35c-0.27,1.4-0.92,2.64-1.94,3.74c-1.02,1.1-2.35,1.95-3.99,2.57l-6.85,2.58L280.08,336.04z
					 M291.34,345.74c1.51-0.57,2.55-1.44,3.13-2.62c0.58-1.18,0.6-2.48,0.06-3.92c-0.54-1.43-1.42-2.4-2.63-2.91
					c-1.21-0.5-2.57-0.47-4.08,0.1l-3.19,1.2l3.51,9.34L291.34,345.74z"/>
				<path d="M307.3,341.14c-1.52,0.03-2.93-0.31-4.21-1.04c-1.28-0.73-2.31-1.78-3.09-3.15c-0.78-1.38-1.15-2.8-1.11-4.27
					c0.04-1.47,0.46-2.86,1.28-4.14c0.81-1.29,1.95-2.34,3.4-3.17s2.94-1.25,4.46-1.28c1.52-0.03,2.92,0.32,4.21,1.04
					c1.29,0.72,2.32,1.77,3.1,3.15s1.14,2.8,1.1,4.28c-0.05,1.48-0.47,2.86-1.28,4.14c-0.81,1.28-1.94,2.34-3.39,3.16
					C310.31,340.68,308.83,341.1,307.3,341.14z M312.13,335.25c0.45-0.76,0.68-1.58,0.67-2.48c0-0.9-0.25-1.78-0.74-2.65
					c-0.49-0.87-1.12-1.53-1.88-2c-0.77-0.47-1.59-0.7-2.47-0.7c-0.88,0-1.74,0.23-2.57,0.7c-0.83,0.47-1.47,1.08-1.92,1.84
					s-0.68,1.58-0.67,2.48c0,0.9,0.25,1.78,0.74,2.64c0.49,0.87,1.12,1.53,1.88,2c0.76,0.47,1.59,0.7,2.47,0.7
					c0.88,0,1.74-0.23,2.56-0.7C311.04,336.62,311.68,336.01,312.13,335.25z"/>
			</g>
			<g>
				<path d="M285.72,422.33c-0.53-0.84-0.83-1.74-0.9-2.69l3.1-0.92c0.07,1.47,0.57,2.51,1.51,3.13c1.26,0.84,2.39,0.52,3.37-0.96
					l4.25-6.37l-4.71-3.14l1.66-2.49l7.79,5.19l-5.79,8.69c-1.1,1.65-2.33,2.61-3.69,2.89c-1.37,0.28-2.84-0.11-4.42-1.16
					C286.97,423.9,286.25,423.17,285.72,422.33z"/>
				<path d="M300.74,430.92c-0.92-1.21-1.47-2.55-1.64-4.01c-0.17-1.47,0.08-2.92,0.73-4.36c0.65-1.44,1.59-2.58,2.8-3.41
					c1.21-0.84,2.58-1.31,4.1-1.41c1.52-0.1,3.04,0.19,4.56,0.88s2.74,1.64,3.66,2.85c0.92,1.21,1.46,2.55,1.64,4.01
					s-0.06,2.92-0.72,4.36s-1.59,2.57-2.81,3.41c-1.22,0.83-2.59,1.3-4.1,1.41c-1.51,0.1-3.03-0.19-4.55-0.88
					S301.67,432.13,300.74,430.92z M308.34,431.36c0.88-0.08,1.68-0.39,2.4-0.92c0.72-0.53,1.29-1.25,1.7-2.16
					c0.41-0.91,0.58-1.81,0.51-2.7c-0.08-0.89-0.37-1.7-0.89-2.41c-0.52-0.72-1.21-1.27-2.07-1.66c-0.87-0.39-1.74-0.55-2.62-0.47
					c-0.88,0.08-1.68,0.39-2.4,0.92s-1.29,1.25-1.7,2.16c-0.41,0.91-0.58,1.81-0.51,2.7s0.37,1.7,0.89,2.41
					c0.52,0.71,1.21,1.27,2.07,1.66C306.59,431.28,307.46,431.44,308.34,431.36z"/>
				<path d="M318.5,438.61c-1.06-0.64-1.87-1.32-2.42-2.03l1.94-2.39c0.54,0.67,1.23,1.27,2.07,1.81c0.84,0.54,1.72,0.93,2.64,1.17
					c1.02,0.27,1.82,0.32,2.39,0.14s0.92-0.51,1.05-1.02c0.1-0.37,0.04-0.72-0.19-1.04c-0.22-0.32-0.54-0.62-0.96-0.88
					s-0.98-0.59-1.71-0.97c-1.11-0.6-2.01-1.13-2.69-1.62c-0.68-0.48-1.21-1.1-1.59-1.87c-0.38-0.77-0.43-1.67-0.15-2.71
					c0.24-0.9,0.7-1.66,1.38-2.26c0.68-0.6,1.57-0.99,2.67-1.16s2.36-0.07,3.78,0.31c0.99,0.26,1.93,0.64,2.82,1.13
					c0.89,0.49,1.63,1.05,2.22,1.68l-1.84,2.44c-1.22-1.2-2.55-1.98-3.99-2.36c-1.01-0.27-1.8-0.3-2.36-0.1
					c-0.57,0.2-0.92,0.56-1.06,1.1c-0.14,0.53,0.03,1,0.52,1.41c0.49,0.41,1.27,0.89,2.34,1.44c1.11,0.59,2.01,1.13,2.69,1.62
					s1.21,1.1,1.59,1.85c0.38,0.75,0.43,1.65,0.16,2.68c-0.24,0.89-0.7,1.63-1.39,2.24c-0.69,0.6-1.59,0.99-2.7,1.15
					s-2.37,0.06-3.79-0.31C320.71,439.73,319.56,439.24,318.5,438.61z"/>
				<path d="M345.39,440.55l-0.31,2.97l-12.4-1.31l1.69-16.01l12.1,1.28l-0.31,2.97l-8.42-0.89l-0.37,3.48l7.43,0.78l-0.3,2.88
					l-7.43-0.78l-0.39,3.71L345.39,440.55z M341.93,422.35l3.84,0.41l-4.49,2.86l-2.79-0.29L341.93,422.35z"/>
				<path d="M371.72,441.31l-1.48-9.55l-3.48,8.58l-1.66,0.25l-5.83-6.95l1.42,9.34l-3.46,0.53l-2.43-15.92l3.05-0.46l7.47,8.98
					l4.36-10.79l3.02-0.46l2.47,15.91L371.72,441.31z"/>
				<path d="M389.54,432.46l-7.06,2.44l-0.22,3.73l-3.61,1.25l1.52-17.56l3.48-1.2l12.07,12.86l-3.7,1.28L389.54,432.46z
					 M387.51,430.17l-4.43-4.99l-0.4,6.66L387.51,430.17z"/>
				<path d="M407.61,427.96l-4.8-2.6l-0.16,0.08l-2.89,1.46l2.03,4l-3.32,1.68l-7.27-14.36l6.22-3.15c1.27-0.64,2.48-0.99,3.64-1.04
					c1.15-0.05,2.18,0.19,3.08,0.71c0.9,0.52,1.62,1.32,2.16,2.39c0.54,1.07,0.75,2.12,0.63,3.15c-0.12,1.03-0.55,1.99-1.29,2.88
					l5.56,2.99L407.61,427.96z M401.2,417.38c-0.74-0.17-1.61,0-2.6,0.51l-2.71,1.37l2.54,5.01l2.71-1.37
					c1-0.51,1.65-1.11,1.95-1.81c0.3-0.7,0.25-1.45-0.16-2.24C402.51,418.03,401.93,417.55,401.2,417.38z"/>
				<path d="M406.05,409.61l3.21-1.89l8.18,13.87l-3.21,1.89L406.05,409.61z"/>
				<path d="M428.48,412.08l-6.74,3.23l0.2,3.73l-3.44,1.65l-0.48-17.62l3.32-1.59l13.45,11.41l-3.53,1.69L428.48,412.08z
					 M426.2,410.04l-4.96-4.46l0.36,6.66L426.2,410.04z"/>
				<path d="M455.91,406.3l-2.61-9.3l-2.43,8.94l-1.62,0.45l-6.62-6.2l2.54,9.11l-3.37,0.94l-4.32-15.51l2.97-0.83l8.49,8.02
					l3.03-11.23l2.95-0.82l4.36,15.5L455.91,406.3z"/>
				<path d="M474.49,400.23l0.41,2.96l-12.35,1.7l-2.2-15.95l12.05-1.66l0.41,2.96l-8.38,1.16l0.48,3.46l7.4-1.02l0.4,2.87
					l-7.41,1.02l0.51,3.69L474.49,400.23z"/>
				<path d="M477.04,386.98l3.73-0.09l0.32,13.06l8.07-0.2l0.07,3.04l-11.8,0.29L477.04,386.98z"/>
				<path d="M493.89,402.31c-1.26-0.86-2.2-1.96-2.82-3.3s-0.85-2.79-0.68-4.36s0.7-2.94,1.58-4.12c0.89-1.18,2.04-2.05,3.45-2.63
					c1.41-0.57,2.95-0.77,4.61-0.59c1.66,0.18,3.12,0.7,4.37,1.55c1.25,0.86,2.19,1.96,2.82,3.3c0.63,1.34,0.86,2.79,0.69,4.36
					c-0.17,1.57-0.7,2.94-1.6,4.12c-0.9,1.18-2.05,2.05-3.45,2.63c-1.4,0.58-2.94,0.77-4.6,0.6
					C496.61,403.69,495.15,403.17,493.89,402.31z M501.24,400.33c0.81-0.35,1.47-0.9,1.99-1.63c0.52-0.73,0.83-1.59,0.94-2.58
					s-0.02-1.9-0.37-2.72s-0.89-1.49-1.6-2.01s-1.55-0.82-2.49-0.93c-0.95-0.1-1.82,0.03-2.63,0.38c-0.81,0.35-1.47,0.89-1.99,1.63
					s-0.83,1.59-0.93,2.58c-0.11,0.99,0.02,1.9,0.37,2.72s0.88,1.49,1.6,2.01c0.72,0.52,1.55,0.83,2.49,0.93
					S500.43,400.69,501.24,400.33z"/>
			</g>
		</g>
	</g>
</g>
</svg>
